  0
SECTION
  2
HEADER
  9
$ACADVER
  1
AC1014
  9
$ACADMAINTVER
 70
     0
  9
$DWGCODEPAGE
  3
DOS850
  9
$INSBASE
 10
0.0
 20
0.0
 30
0.0
  9
$EXTMIN
 10
-160.0381
 20
-80.0381
 30
1.000000E+20
  9
$EXTMAX
 10
160.0381
 20
80.0381
 30
-1.000000E+20
  9
$LIMMIN
 10
0.0
 20
0.0
  9
$LIMMAX
 10
0.0
 20
0.0
  9
$ORTHOMODE
 70
     0
  9
$REGENMODE
 70
     1
  9
$FILLMODE
 70
     1
  9
$QTEXTMODE
 70
     0
  9
$MIRRTEXT
 70
     1
  9
$DRAGMODE
 70
     2
  9
$LTSCALE
 40
1.0
  9
$OSMODE
 70
     0
  9
$ATTMODE
 70
     1
  9
$TEXTSIZE
 40
0.2
  9
$TRACEWID
 40
0.05
  9
$TEXTSTYLE
  7
STANDARD
  9
$CLAYER
  8
0
  9
$CELTYPE
  6
CONTINUOUS
  9
$CECOLOR
 62
   256
  9
$CELTSCALE
 40
1.0
  9
$DELOBJ
 70
     1
  9
$DISPSILH
 70
     0
  9
$DIMSCALE
 40
1.0
  9
$DIMASZ
 40
0.18
  9
$DIMEXO
 40
0.0625
  9
$DIMDLI
 40
0.38
  9
$DIMRND
 40
0.0
  9
$DIMDLE
 40
0.0
  9
$DIMEXE
 40
0.18
  9
$DIMTP
 40
0.0
  9
$DIMTM
 40
0.0
  9
$DIMTXT
 40
0.18
  9
$DIMCEN
 40
0.09
  9
$DIMTSZ
 40
0.0
  9
$DIMTOL
 70
     0
  9
$DIMLIM
 70
     0
  9
$DIMTIH
 70
     1
  9
$DIMTOH
 70
     1
  9
$DIMSE1
 70
     0
  9
$DIMSE2
 70
     0
  9
$DIMTAD
 70
     0
  9
$DIMZIN
 70
     0
  9
$DIMBLK
  1

  9
$DIMASO
 70
     1
  9
$DIMSHO
 70
     1
  9
$DIMPOST
  1

  9
$DIMAPOST
  1

  9
$DIMALT
 70
     0
  9
$DIMALTD
 70
     2
  9
$DIMALTF
 40
25.4
  9
$DIMLFAC
 40
1.0
  9
$DIMTOFL
 70
     0
  9
$DIMTVP
 40
0.0
  9
$DIMTIX
 70
     0
  9
$DIMSOXD
 70
     0
  9
$DIMSAH
 70
     0
  9
$DIMBLK1
  1

  9
$DIMBLK2
  1

  9
$DIMSTYLE
  2
STANDARD
  9
$DIMCLRD
 70
     0
  9
$DIMCLRE
 70
     0
  9
$DIMCLRT
 70
     0
  9
$DIMTFAC
 40
1.0
  9
$DIMGAP
 40
0.09
  9
$DIMJUST
 70
     0
  9
$DIMSD1
 70
     0
  9
$DIMSD2
 70
     0
  9
$DIMTOLJ
 70
     1
  9
$DIMTZIN
 70
     0
  9
$DIMALTZ
 70
     0
  9
$DIMALTTZ
 70
     0
  9
$DIMFIT
 70
     3
  9
$DIMUPT
 70
     0
  9
$DIMUNIT
 70
     2
  9
$DIMDEC
 70
     4
  9
$DIMTDEC
 70
     4
  9
$DIMALTU
 70
     2
  9
$DIMALTTD
 70
     2
  9
$DIMTXSTY
  7
STANDARD
  9
$DIMAUNIT
 70
     0
  9
$LUNITS
 70
     2
  9
$LUPREC
 70
     4
  9
$SKETCHINC
 40
0.1
  9
$FILLETRAD
 40
0.0
  9
$AUNITS
 70
     0
  9
$AUPREC
 70
     0
  9
$MENU
  1
acad
  9
$ELEVATION
 40
0.0
  9
$PELEVATION
 40
0.0
  9
$THICKNESS
 40
0.0
  9
$LIMCHECK
 70
     0
  9
$BLIPMODE
 70
     1
  9
$CHAMFERA
 40
0.0
  9
$CHAMFERB
 40
0.0
  9
$CHAMFERC
 40
0.0
  9
$CHAMFERD
 40
0.0
  9
$SKPOLY
 70
     0
  9
$TDCREATE
 40
0.000000000
  9
$TDUPDATE
 40
0.000000000
  9
$TDINDWG
 40
0.0000000000
  9
$TDUSRTIMER
 40
0.0000000000
  9
$USRTIMER
 70
     1
  9
$ANGBASE
 50
0.0
  9
$ANGDIR
 70
     0
  9
$PDMODE
 70
     0
  9
$PDSIZE
 40
0.0
  9
$PLINEWID
 40
0.0
  9
$COORDS
 70
     0
  9
$SPLFRAME
 70
     0
  9
$SPLINETYPE
 70
     6
  9
$SPLINESEGS
 70
     8
  9
$ATTDIA
 70
     0
  9
$ATTREQ
 70
     1
  9
$HANDLING
 70
     1
  9
$HANDSEED
  5
57
  9
$SURFTAB1
 70
     6
  9
$SURFTAB2
 70
     6
  9
$SURFTYPE
 70
     6
  9
$SURFU
 70
     6
  9
$SURFV
 70
     6
  9
$UCSNAME
  2

  9
$UCSORG
 10
0.0
 20
0.0
 30
0.0
  9
$UCSXDIR
 10
1.0
 20
0.0
 30
0.0
  9
$UCSYDIR
 10
0.0
 20
1.0
 30
0.0
  9
$PUCSNAME
  2

  9
$PUCSORG
 10
0.0
 20
0.0
 30
0.0
  9
$PUCSXDIR
 10
1.0
 20
0.0
 30
0.0
  9
$PUCSYDIR
 10
0.0
 20
1.0
 30
0.0
  9
$USERI1
 70
     0
  9
$USERI2
 70
     0
  9
$USERI3
 70
     0
  9
$USERI4
 70
     0
  9
$USERI5
 70
     0
  9
$USERR1
 40
0.0
  9
$USERR2
 40
0.0
  9
$USERR3
 40
0.0
  9
$USERR4
 40
0.0
  9
$USERR5
 40
0.0
  9
$WORLDVIEW
 70
     1
  9
$SHADEDGE
 70
     3
  9
$SHADEDIF
 70
    70
  9
$TILEMODE
 70
     1
  9
$MAXACTVP
 70
    16
  9
$PINSBASE
 10
0.0
 20
0.0
 30
0.0
  9
$PLIMCHECK
 70
     0
  9
$PEXTMIN
 10
1.000000E+20
 20
1.000000E+20
 30
1.000000E+20
  9
$PEXTMAX
 10
-1.000000E+20
 20
-1.000000E+20
 30
-1.000000E+20
  9
$PLIMMIN
 10
0.0
 20
0.0
  9
$PLIMMAX
 10
12.0
 20
9.0
  9
$UNITMODE
 70
     0
  9
$VISRETAIN
 70
     0
  9
$PLINEGEN
 70
     1
  9
$PSLTSCALE
 70
     0
  9
$TREEDEPTH
 70
  3020
  9
$PICKSTYLE
 70
     1
  9
$CMLSTYLE
  2
STANDARD
  9
$CMLJUST
 70
     0
  9
$CMLSCALE
 40
1.0
  9
$PROXYGRAPHICS
 70
     0
  9
$MEASUREMENT
 70
     0
  0
ENDSEC
  0
SECTION
  2
CLASSES
  0
CLASS
  1
LWPOLYLINE
  2
AcDbPolyline
  3
"AutoCAD"
 90
        0
280
     0
281
     1
  0
CLASS
  1
IMAGE
  2
AcDbRasterImage
  3
ISM
 90
      127
280
     0
281
     1
  0
CLASS
  1
OLE2FRAME
  2
AcDbOle2Frame
  3
""
 90
        0
280
     0
281
     1
  0
CLASS
  1
HATCH
  2
AcDbHatch
  3
"ACAD_SEDONA"
 90
        0
280
     0
281
     1
  0
CLASS
  1
DICTIONARYVAR
  2
AcDbDictionaryVar
  3
"AutoCAD"
 90
        0
280
     0
281
     0
  0
CLASS
  1
RASTERVARIABLES
  2
AcDbRasterVariables
  3
ISM
 90
        0
280
     0
281
     0
  0
CLASS
  1
IMAGEDEF
  2
AcDbRasterImageDef
  3
ISM
 90
        0
280
     0
281
     0
  0
CLASS
  1
IMAGEDEF_REACTOR
  2
AcDbRasterImageDefReactor
  3
ISM
 90
        1
280
     0
281
     0
  0
CLASS
  1
IDBUFFER
  2
AcDbIdBuffer
  3
"Acad"
 90
        0
280
     0
281
     0
  0
CLASS
  1
SPATIAL_FILTER
  2
AcDbSpatialFilter
  3
"Acad"
 90
        0
280
     0
281
     0
  0
CLASS
  1
XRECORD
  2
AcDbXrecord
  3
"<Built In>"
 90
        0
280
     0
281
     0
  0
CLASS
  1
SORTENTSTABLE
  2
AcDbSortentsTable
  3
"AutoCAD"
 90
        0
280
     0
281
     0
  0
CLASS
  1
LAYER_INDEX
  2
AcDbLayerIndex
  3
"Acad"
 90
        0
280
     0
281
     0
  0
CLASS
  1
SPATIAL_INDEX
  2
AcDbSpatialIndex
  3
"Acad"
 90
        0
280
     0
281
     0
  0
CLASS
  1
OBJECT_PTR
  2
CAseDLPNTableRecord
  3
"ASE-LPNTableRecord"
 90
        1
280
     0
281
     0
  0
CLASS
  1
LAYOUT
  2
AcDbLayout
  3
"AutoCAD 2000"
 90
        1
280
     0
281
     0
  0
CLASS
  1
PLOTSETTINGS
  2
AcDbPlotSettings
  3
"AutoCAD 2000"
 90
        1
280
     0
281
     0
  0
CLASS
  1
ACDBDICTIONARYWDFLT
  2
AcDbDictionaryWithDefault
  3
"AutoCAD 2000"
 90
        1
280
     0
281
     0
  0
CLASS
  1
ACDBPLACEHOLDER
  2
AcDbPlaceHolder
  3
"AutoCAD 2000"
 90
        1
280
     0
281
     0
  0
CLASS
  1
VBA_PROJECT
  2
AcDbVbaProject
  3
"acadvba"
 90
        1
280
     0
281
     0
  0
CLASS
  1
WIPEOUT
  2
AcDbWipeout
  3
WipeOut|AutoCAD Express Tool|expresstools@autodesk.com
 90
      127
280
     0
281
     1
  0
CLASS
  1
WIPEOUTVARIABLES
  2
AcDbWipeoutVariables
  3
WipeOut|AutoCAD Express Tool|expresstools@autodesk.com
 90
        0
280
     0
281
     0
  0
CLASS
  1
RTEXT
  2
RText
  3
RText|AutoCAD Express Tool|expresstools@autodesk.com
 90
        0
280
     0
281
     1
  0
CLASS
  1
ARCALIGNEDTEXT
  2
AcDbArcAlignedText
  3
ATEXT|AutoCAD Express Tool|expresstools@autodesk.com
 90
        0
280
     0
281
     1
  0
ENDSEC
  0
SECTION
  2
TABLES
  0
TABLE
  2
VPORT
  5
7
100
AcDbSymbolTable
 70
     1
  0
VPORT
  5
15
100
AcDbSymbolTableRecord
100
AcDbViewportTableRecord
  2
*ACTIVE
 70
     0
 10
0.0
 20
0.0
 11
1.0
 21
1.0
 12
6.591288
 22
4.579184
 13
0.0
 23
0.0
 14
1.0
 24
1.0
 15
0.0
 25
0.0
 16
0.0
 26
0.0
 36
1.0
 17
0.0
 27
0.0
 37
0.0
 40
9.158369
 41
0.688564
 42
50.0
 43
0.0
 44
0.0
 50
0.0
 51
0.0
 71
     0
 72
   100
 73
     1
 74
     1
 75
     0
 76
     0
 77
     0
 78
     0
  0
ENDTAB
  0
TABLE
  2
LTYPE
  5
4
100
AcDbSymbolTable
 70
     3
  0
LTYPE
  5
11
100
AcDbSymbolTableRecord
100
AcDbLinetypeTableRecord
  2
BYBLOCK
 70
    64
  3

 72
    65
 73
     0
 40
0.0
  0
LTYPE
  5
12
100
AcDbSymbolTableRecord
100
AcDbLinetypeTableRecord
  2
BYLAYER
 70
    64
  3

 72
    65
 73
     0
 40
0.0
  0
LTYPE
  5
13
100
AcDbSymbolTableRecord
100
AcDbLinetypeTableRecord
  2
CONTINUOUS
 70
    64
  3
Solid line
 72
    65
 73
     0
 40
0.0
  0
ENDTAB
  0
TABLE
  2
LAYER
  5
2
100
AcDbSymbolTable
 70
     2
  0
LAYER
  5
14
100
AcDbSymbolTableRecord
100
AcDbLayerTableRecord
  2
0
 70
     0
 62
     7
  6
CONTINUOUS
  0
LAYER
  5
24
100
AcDbSymbolTableRecord
100
AcDbLayerTableRecord
  2
0
 70
     0
 62
     7
  6
CONTINUOUS
  0
ENDTAB
  0
TABLE
  2
STYLE
  5
3
100
AcDbSymbolTable
 70
     1
  0
STYLE
  5
17
100
AcDbSymbolTableRecord
100
AcDbTextStyleTableRecord
  2
STANDARD
 70
     0
 40
0.0
 41
1.0
 50
0.0
 71
     0
 42
0.0
  3
txt
  4

  0
ENDTAB
  0
TABLE
  2
VIEW
  5
5
100
AcDbSymbolTable
 70
     0
  0
ENDTAB
  0
TABLE
  2
UCS
  5
6
100
AcDbSymbolTable
 70
     0
  0
ENDTAB
  0
TABLE
  2
APPID
  5
8
100
AcDbSymbolTable
 70
     1
  0
APPID
  5
16
100
AcDbSymbolTableRecord
100
AcDbRegAppTableRecord
  2
ACAD
 70
     0
  0
ENDTAB
  0
TABLE
  2
DIMSTYLE
  5
9
100
AcDbSymbolTable
 70
     1
  0
DIMSTYLE
105
18
100
AcDbSymbolTableRecord
100
AcDbDimStyleTableRecord
  2
STANDARD
 70
     0
  3

  4

  5

  6

  7

 40
1.0
 41
0.18
 42
0.0625
 43
0.38
 44
0.18
 45
0.0
 46
0.0
 47
0.0
 48
0.0
 71
     0
 72
     0
 73
     1
 74
     1
 75
     0
 76
     0
 77
     0
 78
     0
140
0.18
141
0.09
142
0.0
143
25.4
144
1.0
145
0.0
146
1.0
147
0.09
170
     0
171
     2
172
     0
173
     0
174
     0
175
     0
176
     0
177
     0
178
     0
270
     2
271
     4
272
     4
273
     2
274
     2
275
     0
280
     0
281
     0
282
     0
283
     1
284
     0
285
     0
286
     0
287
     0
288
     0
340
17
  0
ENDTAB
  0
TABLE
  2
BLOCK_RECORD
  5
1
100
AcDbSymbolTable
 70
     0
  0
BLOCK_RECORD
  5
A
100
AcDbSymbolTableRecord
100
AcDbBlockTableRecord
  2
*MODEL_SPACE
  0
BLOCK_RECORD
  5
B
100
AcDbSymbolTableRecord
100
AcDbBlockTableRecord
  2
*PAPER_SPACE
  0
ENDTAB
  0
ENDSEC
  0
SECTION
  2
BLOCKS
  0
BLOCK
  5
D
100
AcDbEntity
  8
0
100
AcDbBlockBegin
  2
*MODEL_SPACE
 70
     0
 10
0.0
 20
0.0
 30
0.0
  3
*MODEL_SPACE
  1

  0
ENDBLK
  5
E
100
AcDbEntity
  8
0
100
AcDbBlockEnd
  0
BLOCK
  5
F
100
AcDbEntity
 67
     1
  8
0
100
AcDbBlockBegin
  2
*PAPER_SPACE
 70
     0
 10
0.0
 20
0.0
 30
0.0
  3
*PAPER_SPACE
  1

  0
ENDBLK
  5
10
100
AcDbEntity
 67
     1
  8
0
100
AcDbBlockEnd
  0
ENDSEC
  0
SECTION
  2
ENTITIES
  0
SPLINE
  5
25
100
AcDbEntity
  8
0
 62
     1
100
AcDbSpline
210
0.0
220
0.0
230
1.0
 70
     1
 71
     3
 72
     8
 73
     4
 74
     0
 42
0.0000000001
 43
0.0000000001
 40
0.0
 40
0.0
 40
0.0
 40
0.0
 40
1.0
 40
1.0
 40
1.0
 40
1.0
 10
-160.0
 20
70.0
 30
0.0
 10
-160.0
 20
70.0
 30
0.0
 10
-160.0
 20
70.0
 30
0.0
 10
-160.0
 20
70.0
 30
0.0
  0
SPLINE
  5
26
100
AcDbEntity
  8
0
 62
     1
100
AcDbSpline
210
0.0
220
0.0
230
1.0
 70
     1
 71
     3
 72
     8
 73
     4
 74
     0
 42
0.0000000001
 43
0.0000000001
 40
0.0
 40
0.0
 40
0.0
 40
0.0
 40
1.0
 40
1.0
 40
1.0
 40
1.0
 10
-160.0
 20
-70.0
 30
0.0
 10
-160.0
 20
-70.0
 30
0.0
 10
-160.0
 20
70.0
 30
0.0
 10
-160.0
 20
70.0
 30
0.0
  0
SPLINE
  5
27
100
AcDbEntity
  8
0
 62
     1
100
AcDbSpline
210
0.0
220
0.0
230
1.0
 70
     1
 71
     3
 72
     8
 73
     4
 74
     0
 42
0.0000000001
 43
0.0000000001
 40
0.0
 40
0.0
 40
0.0
 40
0.0
 40
1.0
 40
1.0
 40
1.0
 40
1.0
 10
-155.0
 20
80.0
 30
0.0
 10
-155.0
 20
80.0
 30
0.0
 10
159.9999
 20
80.0
 30
0.0
 10
159.9999
 20
80.0
 30
0.0
  0
SPLINE
  5
28
100
AcDbEntity
  8
0
 62
     1
100
AcDbSpline
210
0.0
220
0.0
230
1.0
 70
     1
 71
     3
 72
     8
 73
     4
 74
     0
 42
0.0000000001
 43
0.0000000001
 40
0.0
 40
0.0
 40
0.0
 40
0.0
 40
1.0
 40
1.0
 40
1.0
 40
1.0
 10
160.0
 20
80.0
 30
0.0
 10
160.0
 20
80.0
 30
0.0
 10
160.0
 20
80.0
 30
0.0
 10
160.0
 20
80.0
 30
0.0
  0
SPLINE
  5
29
100
AcDbEntity
  8
0
 62
     1
100
AcDbSpline
210
0.0
220
0.0
230
1.0
 70
     1
 71
     3
 72
     8
 73
     4
 74
     0
 42
0.0000000001
 43
0.0000000001
 40
0.0
 40
0.0
 40
0.0
 40
0.0
 40
1.0
 40
1.0
 40
1.0
 40
1.0
 10
160.0
 20
80.0
 30
0.0
 10
160.0
 20
80.0
 30
0.0
 10
160.0
 20
-80.0
 30
0.0
 10
160.0
 20
-80.0
 30
0.0
  0
SPLINE
  5
2A
100
AcDbEntity
  8
0
 62
     1
100
AcDbSpline
210
0.0
220
0.0
230
1.0
 70
     1
 71
     3
 72
     8
 73
     4
 74
     0
 42
0.0000000001
 43
0.0000000001
 40
0.0
 40
0.0
 40
0.0
 40
0.0
 40
1.0
 40
1.0
 40
1.0
 40
1.0
 10
160.0
 20
-80.0
 30
0.0
 10
160.0
 20
-80.0
 30
0.0
 10
-155.0
 20
-80.0
 30
0.0
 10
-155.0
 20
-80.0
 30
0.0
  0
SPLINE
  5
2B
100
AcDbEntity
  8
0
 62
     1
100
AcDbSpline
210
0.0
220
0.0
230
1.0
 70
     1
 71
     3
 72
     8
 73
     4
 74
     0
 42
0.0000000001
 43
0.0000000001
 40
0.0
 40
0.0
 40
0.0
 40
0.0
 40
1.0
 40
1.0
 40
1.0
 40
1.0
 10
-160.0
 20
80.0
 30
0.0
 10
-160.0
 20
80.0
 30
0.0
 10
-160.0
 20
70.0
 30
0.0
 10
-160.0
 20
70.0
 30
0.0
  0
SPLINE
  5
2C
100
AcDbEntity
  8
0
 62
     1
100
AcDbSpline
210
0.0
220
0.0
230
1.0
 70
     1
 71
     3
 72
     8
 73
     4
 74
     0
 42
0.0000000001
 43
0.0000000001
 40
0.0
 40
0.0
 40
0.0
 40
0.0
 40
1.0
 40
1.0
 40
1.0
 40
1.0
 10
-155.0
 20
80.0
 30
0.0
 10
-155.0
 20
80.0
 30
0.0
 10
-160.0
 20
80.0
 30
0.0
 10
-160.0
 20
80.0
 30
0.0
  0
SPLINE
  5
2D
100
AcDbEntity
  8
0
 62
     1
100
AcDbSpline
210
0.0
220
0.0
230
1.0
 70
     1
 71
     3
 72
    20
 73
    16
 74
     0
 42
0.0000000001
 43
0.0000000001
 40
0.0
 40
0.0
 40
0.0
 40
0.0
 40
0.25
 40
0.25
 40
0.25
 40
0.25
 40
0.5
 40
0.5
 40
0.5
 40
0.5
 40
0.75
 40
0.75
 40
0.75
 40
0.75
 40
1.0
 40
1.0
 40
1.0
 40
1.0
 10
-152.0
 20
69.999899999999997
 30
0.0
 10
-152.0
 20
71.656800000000004
 30
0.0
 10
-153.34310000000002
 20
72.999899999999997
 30
0.0
 10
-154.9999
 20
72.999899999999997
 30
0.0
 10
-154.9999
 20
72.999899999999997
 30
0.0
 10
-156.6568
 20
73.0
 30
0.0
 10
-157.9999
 20
71.656800000000004
 30
0.0
 10
-157.9999
 20
70.0
 30
0.0
 10
-157.9999
 20
70.0
 30
0.0
 10
-158.0
 20
68.343100000000007
 30
0.0
 10
-156.6568
 20
67.0
 30
0.0
 10
-155.0
 20
66.999899999999997
 30
0.0
 10
-155.0
 20
66.999899999999997
 30
0.0
 10
-153.34310000000002
 20
66.999899999999997
 30
0.0
 10
-152.0
 20
68.343100000000007
 30
0.0
 10
-152.0
 20
69.999899999999997
 30
0.0
  0
SPLINE
  5
2E
100
AcDbEntity
  8
0
 62
     1
100
AcDbSpline
210
0.0
220
0.0
230
1.0
 70
     1
 71
     3
 72
     8
 73
     4
 74
     0
 42
0.0000000001
 43
0.0000000001
 40
0.0
 40
0.0
 40
0.0
 40
0.0
 40
1.0
 40
1.0
 40
1.0
 40
1.0
 10
-160.0
 20
-70.0
 30
0.0
 10
-160.0
 20
-70.0
 30
0.0
 10
-160.0
 20
-70.0
 30
0.0
 10
-160.0
 20
-70.0
 30
0.0
  0
SPLINE
  5
2F
100
AcDbEntity
  8
0
 62
     1
100
AcDbSpline
210
0.0
220
0.0
230
1.0
 70
     1
 71
     3
 72
     8
 73
     4
 74
     0
 42
0.0000000001
 43
0.0000000001
 40
0.0
 40
0.0
 40
0.0
 40
0.0
 40
1.0
 40
1.0
 40
1.0
 40
1.0
 10
-160.0
 20
-80.0
 30
0.0
 10
-160.0
 20
-80.0
 30
0.0
 10
-160.0
 20
-70.0
 30
0.0
 10
-160.0
 20
-70.0
 30
0.0
  0
SPLINE
  5
30
100
AcDbEntity
  8
0
 62
     1
100
AcDbSpline
210
0.0
220
0.0
230
1.0
 70
     1
 71
     3
 72
     8
 73
     4
 74
     0
 42
0.0000000001
 43
0.0000000001
 40
0.0
 40
0.0
 40
0.0
 40
0.0
 40
1.0
 40
1.0
 40
1.0
 40
1.0
 10
-155.0
 20
-80.0
 30
0.0
 10
-155.0
 20
-80.0
 30
0.0
 10
-155.0
 20
-80.0
 30
0.0
 10
-155.0
 20
-80.0
 30
0.0
  0
SPLINE
  5
31
100
AcDbEntity
  8
0
 62
     1
100
AcDbSpline
210
0.0
220
0.0
230
1.0
 70
     1
 71
     3
 72
     8
 73
     4
 74
     0
 42
0.0000000001
 43
0.0000000001
 40
0.0
 40
0.0
 40
0.0
 40
0.0
 40
1.0
 40
1.0
 40
1.0
 40
1.0
 10
-155.0
 20
-80.0
 30
0.0
 10
-155.0
 20
-80.0
 30
0.0
 10
-160.0
 20
-80.0
 30
0.0
 10
-160.0
 20
-80.0
 30
0.0
  0
SPLINE
  5
32
100
AcDbEntity
  8
0
 62
     1
100
AcDbSpline
210
0.0
220
0.0
230
1.0
 70
     1
 71
     3
 72
    20
 73
    16
 74
     0
 42
0.0000000001
 43
0.0000000001
 40
0.0
 40
0.0
 40
0.0
 40
0.0
 40
0.25
 40
0.25
 40
0.25
 40
0.25
 40
0.5
 40
0.5
 40
0.5
 40
0.5
 40
0.75
 40
0.75
 40
0.75
 40
0.75
 40
1.0
 40
1.0
 40
1.0
 40
1.0
 10
-152.0
 20
-70.0
 30
0.0
 10
-152.0
 20
-68.343100000000007
 30
0.0
 10
-153.34310000000002
 20
-67.0
 30
0.0
 10
-154.9999
 20
-67.0
 30
0.0
 10
-154.9999
 20
-67.0
 30
0.0
 10
-156.6568
 20
-66.999899999999997
 30
0.0
 10
-157.9999
 20
-68.343100000000007
 30
0.0
 10
-157.9999
 20
-69.999899999999997
 30
0.0
 10
-157.9999
 20
-69.999899999999997
 30
0.0
 10
-158.0
 20
-71.656800000000004
 30
0.0
 10
-156.6568
 20
-72.999899999999997
 30
0.0
 10
-155.0
 20
-72.999899999999997
 30
0.0
 10
-155.0
 20
-72.999899999999997
 30
0.0
 10
-153.34310000000002
 20
-73.0
 30
0.0
 10
-152.0
 20
-71.656800000000004
 30
0.0
 10
-152.0
 20
-70.0
 30
0.0
  0
SPLINE
  5
33
100
AcDbEntity
  8
0
 62
     1
100
AcDbSpline
210
0.0
220
0.0
230
1.0
 70
     1
 71
     3
 72
    20
 73
    16
 74
     0
 42
0.0000000001
 43
0.0000000001
 40
0.0
 40
0.0
 40
0.0
 40
0.0
 40
0.25
 40
0.25
 40
0.25
 40
0.25
 40
0.5
 40
0.5
 40
0.5
 40
0.5
 40
0.75
 40
0.75
 40
0.75
 40
0.75
 40
1.0
 40
1.0
 40
1.0
 40
1.0
 10
-18.039999999999999
 20
58.049900000000001
 30
0.0
 10
-18.039999999999999
 20
59.016400000000004
 30
0.0
 10
-18.823499999999999
 20
59.799900000000001
 30
0.0
 10
-19.789899999999999
 20
59.799900000000001
 30
0.0
 10
-19.789899999999999
 20
59.799900000000001
 30
0.0
 10
-20.756399999999999
 20
59.800000000000004
 30
0.0
 10
-21.539899999999999
 20
59.016500000000001
 30
0.0
 10
-21.539899999999999
 20
58.050000000000004
 30
0.0
 10
-21.539899999999999
 20
58.050000000000004
 30
0.0
 10
-21.540000000000003
 20
57.083500000000001
 30
0.0
 10
-20.756500000000003
 20
56.300000000000004
 30
0.0
 10
-19.790000000000003
 20
56.299900000000001
 30
0.0
 10
-19.790000000000003
 20
56.299900000000001
 30
0.0
 10
-18.823499999999999
 20
56.299900000000001
 30
0.0
 10
-18.039999999999999
 20
57.083400000000005
 30
0.0
 10
-18.039999999999999
 20
58.049900000000001
 30
0.0
  0
SPLINE
  5
34
100
AcDbEntity
  8
0
 62
     1
100
AcDbSpline
210
0.0
220
0.0
230
1.0
 70
     1
 71
     3
 72
    20
 73
    16
 74
     0
 42
0.0000000001
 43
0.0000000001
 40
0.0
 40
0.0
 40
0.0
 40
0.0
 40
0.25
 40
0.25
 40
0.25
 40
0.25
 40
0.5
 40
0.5
 40
0.5
 40
0.5
 40
0.75
 40
0.75
 40
0.75
 40
0.75
 40
1.0
 40
1.0
 40
1.0
 40
1.0
 10
147.96000000000001
 20
58.049900000000001
 30
0.0
 10
147.96000000000001
 20
59.016400000000004
 30
0.0
 10
147.1764
 20
59.799900000000001
 30
0.0
 10
146.21000000000001
 20
59.799900000000001
 30
0.0
 10
146.21000000000001
 20
59.799900000000001
 30
0.0
 10
145.24350000000001
 20
59.800000000000004
 30
0.0
 10
144.46000000000001
 20
59.016500000000001
 30
0.0
 10
144.46000000000001
 20
58.050000000000004
 30
0.0
 10
144.46000000000001
 20
58.050000000000004
 30
0.0
 10
144.4599
 20
57.083500000000001
 30
0.0
 10
145.24340000000001
 20
56.300000000000004
 30
0.0
 10
146.2099
 20
56.299900000000001
 30
0.0
 10
146.2099
 20
56.299900000000001
 30
0.0
 10
147.1764
 20
56.299900000000001
 30
0.0
 10
147.9599
 20
57.083400000000005
 30
0.0
 10
147.9599
 20
58.049900000000001
 30
0.0
  0
SPLINE
  5
35
100
AcDbEntity
  8
0
 62
     1
100
AcDbSpline
210
0.0
220
0.0
230
1.0
 70
     1
 71
     3
 72
    20
 73
    16
 74
     0
 42
0.0000000001
 43
0.0000000001
 40
0.0
 40
0.0
 40
0.0
 40
0.0
 40
0.25
 40
0.25
 40
0.25
 40
0.25
 40
0.5
 40
0.5
 40
0.5
 40
0.5
 40
0.75
 40
0.75
 40
0.75
 40
0.75
 40
1.0
 40
1.0
 40
1.0
 40
1.0
 10
-18.039999999999999
 20
-21.949999999999999
 30
0.0
 10
-18.039999999999999
 20
-20.983499999999999
 30
0.0
 10
-18.823499999999999
 20
-20.199999999999999
 30
0.0
 10
-19.789899999999999
 20
-20.199999999999999
 30
0.0
 10
-19.789899999999999
 20
-20.199999999999999
 30
0.0
 10
-20.756399999999999
 20
-20.1999
 30
0.0
 10
-21.539899999999999
 20
-20.9834
 30
0.0
 10
-21.539899999999999
 20
-21.9499
 30
0.0
 10
-21.539899999999999
 20
-21.9499
 30
0.0
 10
-21.540000000000003
 20
-22.916399999999999
 30
0.0
 10
-20.756500000000003
 20
-23.6999
 30
0.0
 10
-19.790000000000003
 20
-23.700000000000003
 30
0.0
 10
-19.790000000000003
 20
-23.700000000000003
 30
0.0
 10
-18.823499999999999
 20
-23.700000000000003
 30
0.0
 10
-18.039999999999999
 20
-22.916500000000003
 30
0.0
 10
-18.039999999999999
 20
-21.949999999999999
 30
0.0
  0
SPLINE
  5
36
100
AcDbEntity
  8
0
 62
     1
100
AcDbSpline
210
0.0
220
0.0
230
1.0
 70
     1
 71
     3
 72
    20
 73
    16
 74
     0
 42
0.0000000001
 43
0.0000000001
 40
0.0
 40
0.0
 40
0.0
 40
0.0
 40
0.25
 40
0.25
 40
0.25
 40
0.25
 40
0.5
 40
0.5
 40
0.5
 40
0.5
 40
0.75
 40
0.75
 40
0.75
 40
0.75
 40
1.0
 40
1.0
 40
1.0
 40
1.0
 10
147.96000000000001
 20
-21.949999999999999
 30
0.0
 10
147.96000000000001
 20
-20.983499999999999
 30
0.0
 10
147.1764
 20
-20.199999999999999
 30
0.0
 10
146.21000000000001
 20
-20.199999999999999
 30
0.0
 10
146.21000000000001
 20
-20.199999999999999
 30
0.0
 10
145.24350000000001
 20
-20.1999
 30
0.0
 10
144.46000000000001
 20
-20.9834
 30
0.0
 10
144.46000000000001
 20
-21.9499
 30
0.0
 10
144.46000000000001
 20
-21.9499
 30
0.0
 10
144.4599
 20
-22.916399999999999
 30
0.0
 10
145.24340000000001
 20
-23.6999
 30
0.0
 10
146.2099
 20
-23.700000000000003
 30
0.0
 10
146.2099
 20
-23.700000000000003
 30
0.0
 10
147.1764
 20
-23.700000000000003
 30
0.0
 10
147.9599
 20
-22.916500000000003
 30
0.0
 10
147.9599
 20
-21.949999999999999
 30
0.0
  0
SPLINE
  5
37
100
AcDbEntity
  8
0
 62
     1
100
AcDbSpline
210
0.0
220
0.0
230
1.0
 70
     1
 71
     3
 72
     8
 73
     4
 74
     0
 42
0.0000000001
 43
0.0000000001
 40
0.0
 40
0.0
 40
0.0
 40
0.0
 40
1.0
 40
1.0
 40
1.0
 40
1.0
 10
-127.15000000000001
 20
42.660000000000004
 30
0.0
 10
-127.15000000000001
 20
42.660000000000004
 30
0.0
 10
-127.15000000000001
 20
39.160000000000004
 30
0.0
 10
-127.15000000000001
 20
39.160000000000004
 30
0.0
  0
SPLINE
  5
38
100
AcDbEntity
  8
0
 62
     1
100
AcDbSpline
210
0.0
220
0.0
230
1.0
 70
     1
 71
     3
 72
     8
 73
     4
 74
     0
 42
0.0000000001
 43
0.0000000001
 40
0.0
 40
0.0
 40
0.0
 40
0.0
 40
1.0
 40
1.0
 40
1.0
 40
1.0
 10
-132.15000000000001
 20
39.160000000000004
 30
0.0
 10
-132.15000000000001
 20
39.160000000000004
 30
0.0
 10
-132.15000000000001
 20
42.660000000000004
 30
0.0
 10
-132.15000000000001
 20
42.660000000000004
 30
0.0
  0
SPLINE
  5
39
100
AcDbEntity
  8
0
 62
     1
100
AcDbSpline
210
0.0
220
0.0
230
1.0
 70
     1
 71
     3
 72
     8
 73
     4
 74
     0
 42
0.0000000001
 43
0.0000000001
 40
0.0
 40
0.0
 40
0.0
 40
0.0
 40
1.0
 40
1.0
 40
1.0
 40
1.0
 10
-127.15000000000001
 20
-71.840000000000003
 30
0.0
 10
-127.15000000000001
 20
-71.840000000000003
 30
0.0
 10
-127.15000000000001
 20
-71.840000000000003
 30
0.0
 10
-127.15000000000001
 20
-71.840000000000003
 30
0.0
  0
SPLINE
  5
3A
100
AcDbEntity
  8
0
 62
     1
100
AcDbSpline
210
0.0
220
0.0
230
1.0
 70
     1
 71
     3
 72
     8
 73
     4
 74
     0
 42
0.0000000001
 43
0.0000000001
 40
0.0
 40
0.0
 40
0.0
 40
0.0
 40
1.0
 40
1.0
 40
1.0
 40
1.0
 10
-127.15000000000001
 20
-71.840000000000003
 30
0.0
 10
-127.15000000000001
 20
-71.840000000000003
 30
0.0
 10
-127.15000000000001
 20
-75.3399
 30
0.0
 10
-127.15000000000001
 20
-75.3399
 30
0.0
  0
SPLINE
  5
3B
100
AcDbEntity
  8
0
 62
     1
100
AcDbSpline
210
0.0
220
0.0
230
1.0
 70
     1
 71
     3
 72
     8
 73
     4
 74
     0
 42
0.0000000001
 43
0.0000000001
 40
0.0
 40
0.0
 40
0.0
 40
0.0
 40
1.0
 40
1.0
 40
1.0
 40
1.0
 10
-132.15000000000001
 20
-71.8399
 30
0.0
 10
-132.15000000000001
 20
-71.8399
 30
0.0
 10
-132.15000000000001
 20
-71.8399
 30
0.0
 10
-132.15000000000001
 20
-71.8399
 30
0.0
  0
SPLINE
  5
3C
100
AcDbEntity
  8
0
 62
     1
100
AcDbSpline
210
0.0
220
0.0
230
1.0
 70
     1
 71
     3
 72
     8
 73
     4
 74
     0
 42
0.0000000001
 43
0.0000000001
 40
0.0
 40
0.0
 40
0.0
 40
0.0
 40
1.0
 40
1.0
 40
1.0
 40
1.0
 10
-132.15000000000001
 20
-75.3399
 30
0.0
 10
-132.15000000000001
 20
-75.3399
 30
0.0
 10
-132.15000000000001
 20
-71.8399
 30
0.0
 10
-132.15000000000001
 20
-71.8399
 30
0.0
  0
SPLINE
  5
3D
100
AcDbEntity
  8
0
 62
     1
100
AcDbSpline
210
0.0
220
0.0
230
1.0
 70
     0
 71
     3
 72
    12
 73
     8
 74
     0
 42
0.0000000001
 43
0.0000000001
 40
0.0
 40
0.0
 40
0.0
 40
0.0
 40
0.5
 40
0.5
 40
0.5
 40
0.5
 40
1.0
 40
1.0
 40
1.0
 40
1.0
 10
-129.65000000000001
 20
-69.340000000000003
 30
0.0
 10
-130.31300000000002
 20
-69.340000000000003
 30
0.0
 10
-130.94890000000001
 20
-69.603300000000004
 30
0.0
 10
-131.4177
 20
-70.072200000000009
 30
0.0
 10
-131.4177
 20
-70.072200000000009
 30
0.0
 10
-131.88660000000002
 20
-70.540999999999997
 30
0.0
 10
-132.15000000000001
 20
-71.176900000000003
 30
0.0
 10
-132.15000000000001
 20
-71.840000000000003
 30
0.0
  0
SPLINE
  5
3E
100
AcDbEntity
  8
0
 62
     1
100
AcDbSpline
210
0.0
220
0.0
230
1.0
 70
     0
 71
     3
 72
    12
 73
     8
 74
     0
 42
0.0000000001
 43
0.0000000001
 40
0.0
 40
0.0
 40
0.0
 40
0.0
 40
0.5
 40
0.5
 40
0.5
 40
0.5
 40
1.0
 40
1.0
 40
1.0
 40
1.0
 10
-127.15000000000001
 20
-71.840000000000003
 30
0.0
 10
-127.15000000000001
 20
-71.176900000000003
 30
0.0
 10
-127.41330000000001
 20
-70.540999999999997
 30
0.0
 10
-127.88220000000001
 20
-70.072200000000009
 30
0.0
 10
-127.88220000000001
 20
-70.072200000000009
 30
0.0
 10
-128.351
 20
-69.603300000000004
 30
0.0
 10
-128.98690000000002
 20
-69.340000000000003
 30
0.0
 10
-129.65000000000001
 20
-69.340000000000003
 30
0.0
  0
SPLINE
  5
3F
100
AcDbEntity
  8
0
 62
     1
100
AcDbSpline
210
0.0
220
0.0
230
1.0
 70
     0
 71
     3
 72
    12
 73
     8
 74
     0
 42
0.0000000001
 43
0.0000000001
 40
0.0
 40
0.0
 40
0.0
 40
0.0
 40
0.5
 40
0.5
 40
0.5
 40
0.5
 40
1.0
 40
1.0
 40
1.0
 40
1.0
 10
-132.15000000000001
 20
39.1599
 30
0.0
 10
-132.15000000000001
 20
38.496900000000004
 30
0.0
 10
-131.88660000000002
 20
37.861000000000004
 30
0.0
 10
-131.4177
 20
37.392200000000003
 30
0.0
 10
-131.4177
 20
37.392200000000003
 30
0.0
 10
-130.94890000000001
 20
36.923300000000005
 30
0.0
 10
-130.31300000000002
 20
36.6599
 30
0.0
 10
-129.65000000000001
 20
36.6599
 30
0.0
  0
SPLINE
  5
40
100
AcDbEntity
  8
0
 62
     1
100
AcDbSpline
210
0.0
220
0.0
230
1.0
 70
     0
 71
     3
 72
     8
 73
     4
 74
     0
 42
0.0000000001
 43
0.0000000001
 40
0.0
 40
0.0
 40
0.0
 40
0.0
 40
1.0
 40
1.0
 40
1.0
 40
1.0
 10
-129.6499
 20
36.6599
 30
0.0
 10
-128.26920000000001
 20
36.6599
 30
0.0
 10
-127.15000000000001
 20
37.779200000000003
 30
0.0
 10
-127.15000000000001
 20
39.1599
 30
0.0
  0
SPLINE
  5
41
100
AcDbEntity
  8
0
 62
     1
100
AcDbSpline
210
0.0
220
0.0
230
1.0
 70
     1
 71
     3
 72
     8
 73
     4
 74
     0
 42
0.0000000001
 43
0.0000000001
 40
0.0
 40
0.0
 40
0.0
 40
0.0
 40
1.0
 40
1.0
 40
1.0
 40
1.0
 10
-87.660000000000011
 20
42.660000000000004
 30
0.0
 10
-87.660000000000011
 20
42.660000000000004
 30
0.0
 10
-87.660000000000011
 20
39.160000000000004
 30
0.0
 10
-87.660000000000011
 20
39.160000000000004
 30
0.0
  0
SPLINE
  5
42
100
AcDbEntity
  8
0
 62
     1
100
AcDbSpline
210
0.0
220
0.0
230
1.0
 70
     1
 71
     3
 72
     8
 73
     4
 74
     0
 42
0.0000000001
 43
0.0000000001
 40
0.0
 40
0.0
 40
0.0
 40
0.0
 40
1.0
 40
1.0
 40
1.0
 40
1.0
 10
-92.660000000000011
 20
39.160000000000004
 30
0.0
 10
-92.660000000000011
 20
39.160000000000004
 30
0.0
 10
-92.660000000000011
 20
42.660000000000004
 30
0.0
 10
-92.660000000000011
 20
42.660000000000004
 30
0.0
  0
SPLINE
  5
43
100
AcDbEntity
  8
0
 62
     1
100
AcDbSpline
210
0.0
220
0.0
230
1.0
 70
     1
 71
     3
 72
     8
 73
     4
 74
     0
 42
0.0000000001
 43
0.0000000001
 40
0.0
 40
0.0
 40
0.0
 40
0.0
 40
1.0
 40
1.0
 40
1.0
 40
1.0
 10
-87.660000000000011
 20
-71.840000000000003
 30
0.0
 10
-87.660000000000011
 20
-71.840000000000003
 30
0.0
 10
-87.660000000000011
 20
-71.840000000000003
 30
0.0
 10
-87.660000000000011
 20
-71.840000000000003
 30
0.0
  0
SPLINE
  5
44
100
AcDbEntity
  8
0
 62
     1
100
AcDbSpline
210
0.0
220
0.0
230
1.0
 70
     1
 71
     3
 72
     8
 73
     4
 74
     0
 42
0.0000000001
 43
0.0000000001
 40
0.0
 40
0.0
 40
0.0
 40
0.0
 40
1.0
 40
1.0
 40
1.0
 40
1.0
 10
-87.660000000000011
 20
-71.840000000000003
 30
0.0
 10
-87.660000000000011
 20
-71.840000000000003
 30
0.0
 10
-87.660000000000011
 20
-75.3399
 30
0.0
 10
-87.660000000000011
 20
-75.3399
 30
0.0
  0
SPLINE
  5
45
100
AcDbEntity
  8
0
 62
     1
100
AcDbSpline
210
0.0
220
0.0
230
1.0
 70
     1
 71
     3
 72
     8
 73
     4
 74
     0
 42
0.0000000001
 43
0.0000000001
 40
0.0
 40
0.0
 40
0.0
 40
0.0
 40
1.0
 40
1.0
 40
1.0
 40
1.0
 10
-92.660000000000011
 20
-71.8399
 30
0.0
 10
-92.660000000000011
 20
-71.8399
 30
0.0
 10
-92.660000000000011
 20
-71.8399
 30
0.0
 10
-92.660000000000011
 20
-71.8399
 30
0.0
  0
SPLINE
  5
46
100
AcDbEntity
  8
0
 62
     1
100
AcDbSpline
210
0.0
220
0.0
230
1.0
 70
     1
 71
     3
 72
     8
 73
     4
 74
     0
 42
0.0000000001
 43
0.0000000001
 40
0.0
 40
0.0
 40
0.0
 40
0.0
 40
1.0
 40
1.0
 40
1.0
 40
1.0
 10
-92.660000000000011
 20
-75.3399
 30
0.0
 10
-92.660000000000011
 20
-75.3399
 30
0.0
 10
-92.660000000000011
 20
-71.8399
 30
0.0
 10
-92.660000000000011
 20
-71.8399
 30
0.0
  0
SPLINE
  5
47
100
AcDbEntity
  8
0
 62
     1
100
AcDbSpline
210
0.0
220
0.0
230
1.0
 70
     0
 71
     3
 72
    12
 73
     8
 74
     0
 42
0.0000000001
 43
0.0000000001
 40
0.0
 40
0.0
 40
0.0
 40
0.0
 40
0.5
 40
0.5
 40
0.5
 40
0.5
 40
1.0
 40
1.0
 40
1.0
 40
1.0
 10
-90.160000000000011
 20
-69.340000000000003
 30
0.0
 10
-90.823000000000008
 20
-69.340000000000003
 30
0.0
 10
-91.4589
 20
-69.603300000000004
 30
0.0
 10
-91.927700000000002
 20
-70.072200000000009
 30
0.0
 10
-91.927700000000002
 20
-70.072200000000009
 30
0.0
 10
-92.396600000000007
 20
-70.540999999999997
 30
0.0
 10
-92.660000000000011
 20
-71.176900000000003
 30
0.0
 10
-92.660000000000011
 20
-71.840000000000003
 30
0.0
  0
SPLINE
  5
48
100
AcDbEntity
  8
0
 62
     1
100
AcDbSpline
210
0.0
220
0.0
230
1.0
 70
     0
 71
     3
 72
    12
 73
     8
 74
     0
 42
0.0000000001
 43
0.0000000001
 40
0.0
 40
0.0
 40
0.0
 40
0.0
 40
0.5
 40
0.5
 40
0.5
 40
0.5
 40
1.0
 40
1.0
 40
1.0
 40
1.0
 10
-87.660000000000011
 20
-71.840000000000003
 30
0.0
 10
-87.660000000000011
 20
-71.176900000000003
 30
0.0
 10
-87.923299999999998
 20
-70.540999999999997
 30
0.0
 10
-88.392200000000003
 20
-70.072200000000009
 30
0.0
 10
-88.392200000000003
 20
-70.072200000000009
 30
0.0
 10
-88.861000000000004
 20
-69.603300000000004
 30
0.0
 10
-89.496900000000011
 20
-69.340000000000003
 30
0.0
 10
-90.160000000000011
 20
-69.340000000000003
 30
0.0
  0
SPLINE
  5
49
100
AcDbEntity
  8
0
 62
     1
100
AcDbSpline
210
0.0
220
0.0
230
1.0
 70
     0
 71
     3
 72
    12
 73
     8
 74
     0
 42
0.0000000001
 43
0.0000000001
 40
0.0
 40
0.0
 40
0.0
 40
0.0
 40
0.5
 40
0.5
 40
0.5
 40
0.5
 40
1.0
 40
1.0
 40
1.0
 40
1.0
 10
-92.660000000000011
 20
39.1599
 30
0.0
 10
-92.660000000000011
 20
38.496900000000004
 30
0.0
 10
-92.396600000000007
 20
37.861000000000004
 30
0.0
 10
-91.927700000000002
 20
37.392200000000003
 30
0.0
 10
-91.927700000000002
 20
37.392200000000003
 30
0.0
 10
-91.4589
 20
36.923300000000005
 30
0.0
 10
-90.823000000000008
 20
36.6599
 30
0.0
 10
-90.160000000000011
 20
36.6599
 30
0.0
  0
SPLINE
  5
4A
100
AcDbEntity
  8
0
 62
     1
100
AcDbSpline
210
0.0
220
0.0
230
1.0
 70
     0
 71
     3
 72
     8
 73
     4
 74
     0
 42
0.0000000001
 43
0.0000000001
 40
0.0
 40
0.0
 40
0.0
 40
0.0
 40
1.0
 40
1.0
 40
1.0
 40
1.0
 10
-90.159900000000007
 20
36.6599
 30
0.0
 10
-88.779200000000003
 20
36.6599
 30
0.0
 10
-87.660000000000011
 20
37.779200000000003
 30
0.0
 10
-87.660000000000011
 20
39.1599
 30
0.0
  0
SPLINE
  5
4B
100
AcDbEntity
  8
0
 62
     1
100
AcDbSpline
210
0.0
220
0.0
230
1.0
 70
     1
 71
     3
 72
    20
 73
    16
 74
     0
 42
0.0000000001
 43
0.0000000001
 40
0.0
 40
0.0
 40
0.0
 40
0.0
 40
0.25
 40
0.25
 40
0.25
 40
0.25
 40
0.5
 40
0.5
 40
0.5
 40
0.5
 40
0.75
 40
0.75
 40
0.75
 40
0.75
 40
1.0
 40
1.0
 40
1.0
 40
1.0
 10
-69.039900000000003
 20
72.399900000000002
 30
0.0
 10
-69.039900000000003
 20
73.366399999999999
 30
0.0
 10
-69.82350000000001
 20
74.149900000000002
 30
0.0
 10
-70.789900000000003
 20
74.149900000000002
 30
0.0
 10
-70.789900000000003
 20
74.149900000000002
 30
0.0
 10
-71.756399999999999
 20
74.150000000000006
 30
0.0
 10
-72.539900000000003
 20
73.366500000000002
 30
0.0
 10
-72.539900000000003
 20
72.400000000000006
 30
0.0
 10
-72.539900000000003
 20
72.400000000000006
 30
0.0
 10
-72.540000000000006
 20
71.433500000000009
 30
0.0
 10
-71.756500000000003
 20
70.650000000000006
 30
0.0
 10
-70.790000000000006
 20
70.649900000000002
 30
0.0
 10
-70.790000000000006
 20
70.649900000000002
 30
0.0
 10
-69.82350000000001
 20
70.649900000000002
 30
0.0
 10
-69.040000000000006
 20
71.433400000000006
 30
0.0
 10
-69.040000000000006
 20
72.399900000000002
 30
0.0
  0
SPLINE
  5
4C
100
AcDbEntity
  8
0
 62
     1
100
AcDbSpline
210
0.0
220
0.0
230
1.0
 70
     1
 71
     3
 72
    20
 73
    16
 74
     0
 42
0.0000000001
 43
0.0000000001
 40
0.0
 40
0.0
 40
0.0
 40
0.0
 40
0.25
 40
0.25
 40
0.25
 40
0.25
 40
0.5
 40
0.5
 40
0.5
 40
0.5
 40
0.75
 40
0.75
 40
0.75
 40
0.75
 40
1.0
 40
1.0
 40
1.0
 40
1.0
 10
-47.039999999999999
 20
72.399900000000002
 30
0.0
 10
-47.039999999999999
 20
73.366399999999999
 30
0.0
 10
-47.823500000000003
 20
74.149900000000002
 30
0.0
 10
-48.789900000000003
 20
74.149900000000002
 30
0.0
 10
-48.789900000000003
 20
74.149900000000002
 30
0.0
 10
-49.756399999999999
 20
74.150000000000006
 30
0.0
 10
-50.539900000000003
 20
73.366500000000002
 30
0.0
 10
-50.539900000000003
 20
72.400000000000006
 30
0.0
 10
-50.539900000000003
 20
72.400000000000006
 30
0.0
 10
-50.539999999999999
 20
71.433500000000009
 30
0.0
 10
-49.756500000000003
 20
70.650000000000006
 30
0.0
 10
-48.789999999999999
 20
70.649900000000002
 30
0.0
 10
-48.789999999999999
 20
70.649900000000002
 30
0.0
 10
-47.823500000000003
 20
70.649900000000002
 30
0.0
 10
-47.039999999999999
 20
71.433400000000006
 30
0.0
 10
-47.039999999999999
 20
72.399900000000002
 30
0.0
  0
SPLINE
  5
4D
100
AcDbEntity
  8
0
 62
     1
100
AcDbSpline
210
0.0
220
0.0
230
1.0
 70
     1
 71
     3
 72
    20
 73
    16
 74
     0
 42
0.0000000001
 43
0.0000000001
 40
0.0
 40
0.0
 40
0.0
 40
0.0
 40
0.25
 40
0.25
 40
0.25
 40
0.25
 40
0.5
 40
0.5
 40
0.5
 40
0.5
 40
0.75
 40
0.75
 40
0.75
 40
0.75
 40
1.0
 40
1.0
 40
1.0
 40
1.0
 10
-47.039999999999999
 20
50.399900000000002
 30
0.0
 10
-47.039999999999999
 20
51.366400000000006
 30
0.0
 10
-47.823500000000003
 20
52.149900000000002
 30
0.0
 10
-48.789900000000003
 20
52.149900000000002
 30
0.0
 10
-48.789900000000003
 20
52.149900000000002
 30
0.0
 10
-49.756399999999999
 20
52.150000000000006
 30
0.0
 10
-50.539900000000003
 20
51.366500000000002
 30
0.0
 10
-50.539900000000003
 20
50.400000000000006
 30
0.0
 10
-50.539900000000003
 20
50.400000000000006
 30
0.0
 10
-50.539999999999999
 20
49.433500000000002
 30
0.0
 10
-49.756500000000003
 20
48.650000000000006
 30
0.0
 10
-48.789999999999999
 20
48.649900000000002
 30
0.0
 10
-48.789999999999999
 20
48.649900000000002
 30
0.0
 10
-47.823500000000003
 20
48.649900000000002
 30
0.0
 10
-47.039999999999999
 20
49.433399999999999
 30
0.0
 10
-47.039999999999999
 20
50.399900000000002
 30
0.0
  0
SPLINE
  5
4E
100
AcDbEntity
  8
0
 62
     1
100
AcDbSpline
210
0.0
220
0.0
230
1.0
 70
     1
 71
     3
 72
    20
 73
    16
 74
     0
 42
0.0000000001
 43
0.0000000001
 40
0.0
 40
0.0
 40
0.0
 40
0.0
 40
0.25
 40
0.25
 40
0.25
 40
0.25
 40
0.5
 40
0.5
 40
0.5
 40
0.5
 40
0.75
 40
0.75
 40
0.75
 40
0.75
 40
1.0
 40
1.0
 40
1.0
 40
1.0
 10
-69.039900000000003
 20
50.399900000000002
 30
0.0
 10
-69.039900000000003
 20
51.366400000000006
 30
0.0
 10
-69.82350000000001
 20
52.149900000000002
 30
0.0
 10
-70.789900000000003
 20
52.149900000000002
 30
0.0
 10
-70.789900000000003
 20
52.149900000000002
 30
0.0
 10
-71.756399999999999
 20
52.150000000000006
 30
0.0
 10
-72.539900000000003
 20
51.366500000000002
 30
0.0
 10
-72.539900000000003
 20
50.400000000000006
 30
0.0
 10
-72.539900000000003
 20
50.400000000000006
 30
0.0
 10
-72.540000000000006
 20
49.433500000000002
 30
0.0
 10
-71.756500000000003
 20
48.650000000000006
 30
0.0
 10
-70.790000000000006
 20
48.649900000000002
 30
0.0
 10
-70.790000000000006
 20
48.649900000000002
 30
0.0
 10
-69.82350000000001
 20
48.649900000000002
 30
0.0
 10
-69.040000000000006
 20
49.433399999999999
 30
0.0
 10
-69.040000000000006
 20
50.399900000000002
 30
0.0
  0
SPLINE
  5
4F
100
AcDbEntity
  8
0
 62
     1
100
AcDbSpline
210
0.0
220
0.0
230
1.0
 70
     1
 71
     3
 72
     8
 73
     4
 74
     0
 42
0.0000000001
 43
0.0000000001
 40
0.0
 40
0.0
 40
0.0
 40
0.0
 40
1.0
 40
1.0
 40
1.0
 40
1.0
 10
-132.15000000000001
 20
42.660000000000004
 30
0.0
 10
-132.15000000000001
 20
42.660000000000004
 30
0.0
 10
-127.15000000000001
 20
42.660000000000004
 30
0.0
 10
-127.15000000000001
 20
42.660000000000004
 30
0.0
  0
SPLINE
  5
50
100
AcDbEntity
  8
0
 62
     1
100
AcDbSpline
210
0.0
220
0.0
230
1.0
 70
     1
 71
     3
 72
     8
 73
     4
 74
     0
 42
0.0000000001
 43
0.0000000001
 40
0.0
 40
0.0
 40
0.0
 40
0.0
 40
1.0
 40
1.0
 40
1.0
 40
1.0
 10
-92.660000000000011
 20
42.660000000000004
 30
0.0
 10
-92.660000000000011
 20
42.660000000000004
 30
0.0
 10
-87.660000000000011
 20
42.660000000000004
 30
0.0
 10
-87.660000000000011
 20
42.660000000000004
 30
0.0
  0
SPLINE
  5
51
100
AcDbEntity
  8
0
 62
     1
100
AcDbSpline
210
0.0
220
0.0
230
1.0
 70
     1
 71
     3
 72
     8
 73
     4
 74
     0
 42
0.0000000001
 43
0.0000000001
 40
0.0
 40
0.0
 40
0.0
 40
0.0
 40
1.0
 40
1.0
 40
1.0
 40
1.0
 10
-87.659900000000007
 20
-75.3399
 30
0.0
 10
-87.659900000000007
 20
-75.3399
 30
0.0
 10
-87.659900000000007
 20
-75.3399
 30
0.0
 10
-87.659900000000007
 20
-75.3399
 30
0.0
  0
SPLINE
  5
52
100
AcDbEntity
  8
0
 62
     1
100
AcDbSpline
210
0.0
220
0.0
230
1.0
 70
     1
 71
     3
 72
     8
 73
     4
 74
     0
 42
0.0000000001
 43
0.0000000001
 40
0.0
 40
0.0
 40
0.0
 40
0.0
 40
1.0
 40
1.0
 40
1.0
 40
1.0
 10
-87.659900000000007
 20
-75.3399
 30
0.0
 10
-87.659900000000007
 20
-75.3399
 30
0.0
 10
-92.660000000000011
 20
-75.3399
 30
0.0
 10
-92.660000000000011
 20
-75.3399
 30
0.0
  0
SPLINE
  5
53
100
AcDbEntity
  8
0
 62
     1
100
AcDbSpline
210
0.0
220
0.0
230
1.0
 70
     1
 71
     3
 72
     8
 73
     4
 74
     0
 42
0.0000000001
 43
0.0000000001
 40
0.0
 40
0.0
 40
0.0
 40
0.0
 40
1.0
 40
1.0
 40
1.0
 40
1.0
 10
-127.15000000000001
 20
-75.3399
 30
0.0
 10
-127.15000000000001
 20
-75.3399
 30
0.0
 10
-127.15000000000001
 20
-75.3399
 30
0.0
 10
-127.15000000000001
 20
-75.3399
 30
0.0
  0
SPLINE
  5
54
100
AcDbEntity
  8
0
 62
     1
100
AcDbSpline
210
0.0
220
0.0
230
1.0
 70
     1
 71
     3
 72
     8
 73
     4
 74
     0
 42
0.0000000001
 43
0.0000000001
 40
0.0
 40
0.0
 40
0.0
 40
0.0
 40
1.0
 40
1.0
 40
1.0
 40
1.0
 10
-132.15000000000001
 20
-75.3399
 30
0.0
 10
-132.15000000000001
 20
-75.3399
 30
0.0
 10
-127.15000000000001
 20
-75.3399
 30
0.0
 10
-127.15000000000001
 20
-75.3399
 30
0.0
  0
SPLINE
  5
55
100
AcDbEntity
  8
0
 62
     1
100
AcDbSpline
210
0.0
220
0.0
230
1.0
 70
     1
 71
     3
 72
    20
 73
    16
 74
     0
 42
0.0000000001
 43
0.0000000001
 40
0.0
 40
0.0
 40
0.0
 40
0.0
 40
0.25
 40
0.25
 40
0.25
 40
0.25
 40
0.5
 40
0.5
 40
0.5
 40
0.5
 40
0.75
 40
0.75
 40
0.75
 40
0.75
 40
1.0
 40
1.0
 40
1.0
 40
1.0
 10
-129.43000000000001
 20
70.809899999999999
 30
0.0
 10
-129.43000000000001
 20
71.77640000000001
 30
0.0
 10
-128.6464
 20
72.559899999999999
 30
0.0
 10
-127.68000000000001
 20
72.559899999999999
 30
0.0
 10
-127.68000000000001
 20
72.559899999999999
 30
0.0
 10
-126.71350000000001
 20
72.560000000000002
 30
0.0
 10
-125.93000000000001
 20
71.776499999999999
 30
0.0
 10
-125.93000000000001
 20
70.810000000000002
 30
0.0
 10
-125.93000000000001
 20
70.810000000000002
 30
0.0
 10
-125.9299
 20
69.843500000000006
 30
0.0
 10
-126.71340000000001
 20
69.060000000000002
 30
0.0
 10
-127.6799
 20
69.059899999999999
 30
0.0
 10
-127.6799
 20
69.059899999999999
 30
0.0
 10
-128.6464
 20
69.059899999999999
 30
0.0
 10
-129.4299
 20
69.843400000000003
 30
0.0
 10
-129.4299
 20
70.809899999999999
 30
0.0
  0
SPLINE
  5
56
100
AcDbEntity
  8
0
 62
     1
100
AcDbSpline
210
0.0
220
0.0
230
1.0
 70
     1
 71
     3
 72
    20
 73
    16
 74
     0
 42
0.0000000001
 43
0.0000000001
 40
0.0
 40
0.0
 40
0.0
 40
0.0
 40
0.25
 40
0.25
 40
0.25
 40
0.25
 40
0.5
 40
0.5
 40
0.5
 40
0.5
 40
0.75
 40
0.75
 40
0.75
 40
0.75
 40
1.0
 40
1.0
 40
1.0
 40
1.0
 10
-99.63000000000001
 20
54.609900000000003
 30
0.0
 10
-99.63000000000001
 20
55.5764
 30
0.0
 10
-98.846400000000003
 20
56.359900000000003
 30
0.0
 10
-97.88000000000001
 20
56.359900000000003
 30
0.0
 10
-97.88000000000001
 20
56.359900000000003
 30
0.0
 10
-96.913499999999999
 20
56.359999999999999
 30
0.0
 10
-96.13000000000001
 20
55.576500000000003
 30
0.0
 10
-96.13000000000001
 20
54.609999999999999
 30
0.0
 10
-96.13000000000001
 20
54.609999999999999
 30
0.0
 10
-96.129900000000006
 20
53.643500000000003
 30
0.0
 10
-96.91340000000001
 20
52.859999999999999
 30
0.0
 10
-97.879900000000006
 20
52.859900000000003
 30
0.0
 10
-97.879900000000006
 20
52.859900000000003
 30
0.0
 10
-98.846400000000003
 20
52.859900000000003
 30
0.0
 10
-99.629900000000006
 20
53.6434
 30
0.0
 10
-99.629900000000006
 20
54.609900000000003
 30
0.0
  0
ENDSEC
  0
SECTION
  2
OBJECTS
  0
DICTIONARY
  5
19
100
AcDbDictionary
  3
ACAD_GROUP
350
1A
  3
ACAD_MLINESTYLE
350
1B
  0
DICTIONARY
  5
1A
102
{ACAD_REACTORS
330
19
102
}
100
AcDbDictionary
  0
DICTIONARY
  5
1B
102
{ACAD_REACTORS
330
19
102
}
100
AcDbDictionary
  3
STANDARD
350
1C
  0
MLINESTYLE
  5
1C
102
{ACAD_REACTORS
330
1B
102
}
100
AcDbMlineStyle
  2
STANDARD
 70
     0
  3

 62
     0
 51
90.0
 52
90.0
 71
     2
 49
0.5
 62
   256
  6
BYLAYER
 49
-0.5
 62
   256
  6
BYLAYER
  0
DICTIONARY
  5
22
102
{ACAD_REACTORS
330
19
102
}
100
AcDbDictionary
  0
ENDSEC
  0
EOF
